<?xml version="1.0" encoding="UTF-8"?>
<svg id="Layer_2" data-name="Layer 2" xmlns="http://www.w3.org/2000/svg" xmlns:xlink="http://www.w3.org/1999/xlink" viewBox="0 0 262.77 262.77">
  <defs>
    <style>
      .cls-1 {
        fill: none;
      }

      .cls-2 {
        fill: #caa957;
      }

      .cls-3 {
        clip-path: url(#clippath);
      }
    </style>
    <clipPath id="clippath">
      <circle class="cls-1" cx="131.38" cy="131.38" r="131.38"/>
    </clipPath>
  </defs>
  <g id="Layer_1-2" data-name="Layer 1">
    <g class="cls-3">
      <g>
        <polygon class="cls-2" points="140.7 75.49 141.97 76.76 145.54 80.33 148.42 83.21 149.1 83.89 176.29 76.61 176.29 72.09 150.41 79.02 146.84 75.46 176.29 67.57 176.29 63.04 138.41 73.2 140.7 75.49"/>
        <polygon class="cls-2" points="155.14 89.93 156.24 91.03 159.8 94.59 162.86 97.65 163.37 98.16 176.29 94.7 176.29 94.7 201.47 87.95 208.58 95.07 205.49 98.16 200.16 92.82 176.29 99.22 176.29 99.22 166.94 101.73 170.5 105.29 176.29 103.74 176.29 103.74 198.86 97.69 202.4 101.24 202.4 101.24 205.49 104.33 205.49 104.33 208.58 101.24 211.67 98.16 214.76 95.07 211.67 91.98 202.77 83.08 176.29 90.17 176.29 90.17 164.67 93.29 161.11 89.72 176.29 85.65 176.29 85.65 204.08 78.21 220.94 95.07 220.93 95.07 224.02 98.16 233.29 88.89 233.08 88.68 230.2 85.8 207.99 63.59 176.29 72.09 176.29 76.61 206.69 68.47 227.11 88.89 224.02 91.98 205.38 73.34 176.29 81.13 176.29 81.13 152.67 87.46 155.14 89.93"/>
        <polygon class="cls-2" points="109.9 120.55 110.54 118.16 111.84 113.29 106.97 114.59 84.74 120.55 101.62 120.55 105.67 119.47 105.37 120.55 109.9 120.55"/>
        <polygon class="cls-2" points="142.69 31.81 139.13 28.24 137.82 33.12 131.26 57.61 129.95 62.48 134.82 61.18 154.44 55.91 154.43 55.9 154.43 55.9 143.63 45.1 142.33 49.97 146.01 53.65 136.13 56.3 141.39 36.68 150.91 46.21 159.31 54.61 164.18 53.3 160.62 49.74 142.69 31.81"/>
        <polygon class="cls-2" points="-1.95 113.92 -3.72 120.55 .8 120.55 1.62 117.48 4.69 120.55 10.86 120.55 2.92 112.61 -.64 109.05 -1.95 113.92"/>
        <polygon class="cls-2" points="168 51.26 176.29 49.03 176.29 44.51 169.3 46.38 111.1 -11.82 118.93 -41.05 114.41 -41.05 106.23 -10.51 168 51.26"/>
        <polygon class="cls-2" points="176.29 -2.22 176.29 -8.4 175.72 -8.97 175.72 -8.97 172.63 -5.88 169.54 -2.79 166.45 .3 169.54 3.38 176.29 10.14 176.29 3.96 172.63 .3 175.72 -2.79 176.29 -2.22"/>
        <polygon class="cls-2" points="141.95 .5 145.04 3.59 148.13 .5 151.22 -2.59 154.31 -5.67 154.31 -5.68 151.22 -8.76 151.22 -8.76 140.33 -19.65 146.06 -41.05 141.54 -41.05 135.46 -18.35 148.13 -5.67 145.04 -2.59 130.59 -17.04 137.02 -41.05 132.5 -41.05 125.72 -15.73 141.95 .5"/>
        <polygon class="cls-2" points="170.61 41.51 176.29 39.99 176.29 39.99 242.81 22.17 240.51 19.87 239.24 18.6 235.67 15.04 232.79 12.15 232.11 11.47 176.29 26.42 176.29 26.42 174.52 26.9 154.1 6.47 157.19 3.39 175.83 22.03 176.29 21.9 176.29 16.31 160.28 .3 160.28 .3 157.19 -2.79 147.92 6.47 148.13 6.68 151.01 9.56 173.22 31.77 176.29 30.95 176.29 30.95 230.8 16.34 234.37 19.91 176.29 35.47 176.29 35.47 171.91 36.64 120.84 -14.43 127.98 -41.05 123.46 -41.05 115.97 -13.12 170.61 41.51"/>
        <polygon class="cls-2" points="-33.54 70.29 16.72 120.55 22.9 120.55 -28.67 68.98 -8.02 -8.08 -11.58 -11.65 -33.54 70.29"/>
        <polygon class="cls-2" points="106.61 106.54 54.3 120.55 71.17 120.55 110.17 110.1 106.61 106.54"/>
        <polygon class="cls-2" points="-4.45 -4.52 -23.79 67.68 29.08 120.55 37.42 120.55 103.04 102.97 100.74 100.67 99.47 99.4 95.91 95.84 93.02 92.95 92.34 92.27 34.76 107.7 14.33 87.28 17.42 84.19 36.06 102.83 88.77 88.7 86.3 86.24 85.21 85.14 81.64 81.57 78.58 78.51 78.08 78.01 39.98 88.21 32.86 81.1 35.95 78.01 41.28 83.34 74.51 74.44 70.94 70.87 42.59 78.47 39.04 74.92 39.04 74.92 35.95 71.83 35.95 71.83 32.86 74.92 29.78 78.01 26.69 81.1 29.78 84.19 38.67 93.09 76.77 82.88 80.34 86.44 37.37 97.96 20.51 81.1 20.51 81.1 17.42 78.01 8.16 87.28 8.36 87.48 11.24 90.36 33.45 112.57 91.04 97.14 94.6 100.71 32.15 117.44 -18.92 66.37 -2.19 3.92 1.38 7.48 -14.05 65.07 2.19 81.3 5.27 84.39 8.36 81.3 11.45 78.22 14.54 75.13 14.54 75.13 11.45 72.04 11.45 72.04 .56 61.15 12.08 18.18 15.64 21.75 5.43 59.85 20.51 74.92 23.6 78.01 26.69 74.92 29.78 71.83 32.86 68.75 29.78 65.66 29.78 65.66 20.05 55.93 26.34 32.45 29.91 36.02 24.92 54.62 43.9 73.6 67.38 67.31 65.15 65.08 63.81 63.74 60.25 60.18 57.43 57.36 56.68 56.61 47.81 58.98 39.54 50.71 40.61 46.71 48.22 54.33 53.09 53.02 41.91 41.84 41.21 41.14 38.35 38.28 34.66 52.02 46.51 63.86 55.37 61.48 58.94 65.05 45.2 68.73 29.79 53.32 34.78 34.71 33.39 33.32 31.21 31.14 27.65 27.58 25.67 25.6 24.08 24.01 22.92 28.35 22.58 28.69 22.78 28.88 15.18 57.24 26.69 68.75 23.6 71.83 10.31 58.54 20.51 20.44 19.49 19.42 16.95 16.88 13.38 13.31 11.77 11.7 9.82 9.75 -4.31 62.46 8.36 75.13 5.27 78.22 -9.18 63.76 6.25 6.18 5.08 5.01 2.68 2.61 -.88 -.95 -2.64 -2.71 -4.45 -4.52"/>
        <polygon class="cls-2" points="-4.93 -11.17 72.14 -31.82 130.34 26.38 109.69 103.45 113.26 107.01 135.22 25.07 73.45 -36.7 -8.49 -14.74 -4.93 -11.17"/>
        <polygon class="cls-2" points="110.86 31.6 95.43 89.18 96.6 90.35 99 92.75 102.56 96.32 104.32 98.07 106.13 99.88 125.47 27.68 70.84 -26.95 -1.36 -7.61 .94 -5.31 2.21 -4.04 5.77 -.47 8.66 2.41 9.34 3.09 66.92 -12.34 87.35 8.09 84.26 11.18 65.62 -7.47 12.9 6.66 15.37 9.13 16.47 10.22 20.04 13.79 23.1 16.85 23.6 17.36 61.7 7.15 68.81 14.26 65.73 17.35 60.39 12.02 27.17 20.92 30.73 24.49 59.09 16.89 62.64 20.44 62.64 20.44 65.73 23.53 65.73 23.53 68.81 20.44 71.9 17.35 74.99 14.26 71.9 11.18 63 2.28 24.91 12.48 21.34 8.92 64.31 -2.59 81.17 14.26 81.17 14.26 84.26 17.35 93.52 8.09 93.32 7.88 90.43 5 68.23 -17.21 10.64 -1.78 7.08 -5.35 69.53 -22.08 120.6 28.99 103.87 91.44 100.3 87.88 115.73 30.29 99.49 14.06 96.4 10.97 93.32 14.06 90.23 17.15 87.14 20.23 87.14 20.24 90.23 23.32 101.12 34.21 89.6 77.18 86.04 73.61 96.24 35.52 81.17 20.44 78.08 17.35 74.99 20.44 71.9 23.53 68.81 26.62 68.81 26.62 71.9 29.71 71.9 29.71 81.63 39.43 75.34 62.91 71.77 59.35 76.76 40.74 57.78 21.76 34.3 28.05 36.53 30.28 37.87 31.62 41.43 35.19 44.25 38.01 45 38.75 53.87 36.38 62.14 44.65 61.07 48.65 53.46 41.03 48.59 42.34 59.77 53.52 60.46 54.22 63.33 57.09 67.01 43.35 55.17 31.51 46.3 33.88 42.74 30.32 56.48 26.63 71.89 42.04 66.9 60.65 68.29 62.04 70.47 64.22 74.03 67.79 76.01 69.76 77.6 71.35 78.76 67.01 79.1 66.68 78.9 66.48 86.5 38.13 74.99 26.62 78.08 23.53 91.37 36.82 81.16 74.92 82.19 75.94 84.73 78.48 88.3 82.05 89.91 83.66 91.86 85.62 105.99 32.91 93.32 20.23 96.4 17.15 110.86 31.6"/>
        <polygon class="cls-2" points="128.19 230.76 114.41 282.16 118.93 282.16 131.75 234.32 128.19 230.76"/>
        <polygon class="cls-2" points="159.26 261.83 156.71 259.29 153.15 255.72 151.54 254.11 149.58 252.15 141.54 282.16 146.06 282.16 151.84 260.59 155.41 264.16 150.59 282.16 155.11 282.16 160.28 262.85 159.26 261.83"/>
        <polygon class="cls-2" points="144.85 247.42 142.45 245.02 138.88 241.46 137.12 239.7 135.32 237.89 123.46 282.16 127.98 282.16 137.58 246.33 141.14 249.89 132.5 282.16 137.02 282.16 146.02 248.59 144.85 247.42"/>
        <polygon class="cls-2" points="140.7 237.1 141.97 238.37 145.54 241.93 148.42 244.82 149.1 245.5 176.29 238.21 176.29 233.69 150.41 240.63 146.84 237.06 176.29 229.17 176.29 224.65 138.41 234.8 140.7 237.1"/>
        <polygon class="cls-2" points="152.67 249.07 155.14 251.54 156.24 252.63 159.8 256.2 162.86 259.26 163.37 259.76 176.29 256.3 176.29 256.3 201.47 249.56 208.58 256.67 205.49 259.76 200.16 254.43 176.29 260.82 176.29 260.82 166.94 263.33 170.5 266.9 176.29 265.34 176.29 265.34 198.86 259.3 202.4 262.85 202.4 262.85 205.49 265.94 205.49 265.94 208.58 262.85 211.67 259.76 214.76 256.67 211.67 253.58 202.77 244.68 176.29 251.78 176.29 251.78 164.67 254.89 161.11 251.33 176.29 247.26 176.29 247.26 204.08 239.81 220.94 256.67 220.93 256.67 224.02 259.76 233.29 250.5 233.08 250.29 230.2 247.41 207.99 225.2 176.29 233.69 176.29 238.21 206.69 230.07 227.11 250.5 224.02 253.58 205.38 234.94 176.29 242.74 176.29 242.74 152.67 249.07"/>
        <polygon class="cls-2" points="150.91 207.82 159.31 216.21 164.18 214.91 160.62 211.34 142.69 193.42 139.13 189.85 137.82 194.72 131.26 219.22 129.95 224.09 134.82 222.78 154.44 217.52 154.43 217.51 154.43 217.51 143.63 206.71 142.33 211.58 146.01 215.26 136.13 217.91 141.39 198.29 150.91 207.82"/>
        <polygon class="cls-2" points="176.29 210.64 176.29 206.12 169.3 207.99 111.1 149.79 118.93 120.55 118.93 120.55 131.75 72.72 128.19 69.15 114.41 120.55 114.41 120.55 106.23 151.09 168 212.86 176.29 210.64"/>
        <polygon class="cls-2" points="176.29 159.39 176.29 153.21 175.72 152.64 175.72 152.64 172.63 155.72 169.54 158.81 166.45 161.9 169.54 164.99 176.29 171.74 176.29 165.56 172.63 161.9 175.72 158.81 176.29 159.39"/>
        <polygon class="cls-2" points="176.29 147.03 183.66 154.4 207.14 148.11 204.92 145.88 203.58 144.54 200.01 140.98 197.19 138.16 196.45 137.41 187.58 139.79 179.3 131.51 180.37 127.52 187.99 135.13 192.86 133.82 181.68 122.64 180.98 121.95 179.59 120.55 177.72 120.55 176.29 125.86 176.29 125.87 174.43 132.82 176.29 134.68 176.29 134.68 186.27 144.66 195.14 142.28 198.71 145.85 184.97 149.53 176.29 140.86 176.29 140.86 169.56 134.12 173.19 120.55 173.19 120.55 174.55 115.51 173.16 114.12 170.98 111.95 167.41 108.38 165.43 106.4 163.85 104.81 162.68 109.15 162.35 109.49 162.54 109.69 159.63 120.55 159.63 120.55 154.94 138.04 166.45 149.55 163.37 152.64 150.07 139.34 155.11 120.55 155.11 120.55 160.28 101.25 159.26 100.23 156.71 97.68 153.15 94.12 151.54 92.5 149.58 90.55 141.54 120.55 146.06 120.55 151.84 98.99 155.41 102.55 150.59 120.55 150.59 120.55 145.2 140.65 160.28 155.72 163.37 158.81 166.45 155.72 169.54 152.64 172.63 149.55 172.63 149.55 169.54 146.46 159.82 136.73 164.15 120.55 164.15 120.55 166.11 113.25 169.67 116.82 168.67 120.55 168.67 120.55 164.69 135.43 176.29 147.03 176.29 147.03"/>
        <polygon class="cls-2" points="130.59 144.57 137.02 120.55 132.5 120.55 125.72 145.87 141.95 162.11 145.04 165.2 148.13 162.11 151.22 159.02 154.31 155.93 154.31 155.93 151.22 152.84 151.22 152.84 140.33 141.95 146.06 120.55 141.54 120.55 135.46 143.26 148.13 155.93 145.04 159.02 130.59 144.57"/>
        <polygon class="cls-2" points="176.29 201.59 242.81 183.77 240.51 181.48 239.24 180.21 235.67 176.64 232.79 173.75 232.11 173.07 176.29 188.03 176.29 188.03 174.52 188.5 154.1 168.08 157.19 164.99 175.83 183.63 176.29 183.51 176.29 177.92 160.28 161.9 160.28 161.9 157.19 158.81 147.92 168.08 148.13 168.28 151.01 171.17 173.22 193.37 176.29 192.55 176.29 192.55 230.8 177.95 234.37 181.51 176.29 197.07 176.29 197.07 171.91 198.25 120.84 147.18 127.98 120.55 127.98 120.55 137.58 84.72 141.14 88.29 132.5 120.55 137.02 120.55 146.02 86.98 144.85 85.81 142.45 83.42 138.88 79.85 137.12 78.09 135.32 76.28 123.46 120.55 123.46 120.55 115.97 148.48 170.61 203.12 176.29 201.59 176.29 201.59"/>
        <polygon class="cls-2" points="105.26 137.77 105.28 137.78 109.9 120.55 105.37 120.55 103.02 129.35 99.33 125.67 94.46 126.97 105.26 137.77 105.26 137.77"/>
        <polygon class="cls-2" points="99.1 143.96 102.66 147.52 103.97 142.65 95.57 134.25 86.04 124.73 101.62 120.55 84.74 120.55 82.48 121.16 77.6 122.46 81.17 126.03 99.1 143.96"/>
        <polygon class="cls-2" points="22.9 282.16 -28.67 230.59 -8.02 153.52 -11.58 149.95 -33.54 231.89 16.72 282.16 22.9 282.16"/>
        <polygon class="cls-2" points="-4.45 157.09 -23.8 229.29 29.08 282.16 29.08 282.16 30.84 283.92 37.42 282.16 37.42 282.16 103.04 264.58 100.74 262.28 99.47 261.01 95.91 257.44 93.02 254.56 92.34 253.88 34.76 269.31 14.33 248.88 17.42 245.79 36.06 264.44 88.77 250.31 86.3 247.84 85.21 246.75 81.64 243.18 78.58 240.12 78.08 239.61 39.98 249.82 32.86 242.71 35.95 239.62 41.28 244.95 74.51 236.05 70.94 232.48 42.59 240.08 39.04 236.53 39.04 236.53 35.95 233.44 35.95 233.44 32.86 236.53 29.77 239.62 26.69 242.71 29.77 245.79 38.67 254.69 76.77 244.48 80.34 248.05 37.37 259.57 20.51 242.71 20.51 242.7 17.42 239.62 8.16 248.88 8.36 249.09 11.24 251.97 33.45 274.18 91.03 258.75 94.6 262.32 32.15 279.05 -18.92 227.98 -2.19 165.53 1.38 169.09 -14.05 226.67 2.18 242.91 5.27 246 8.36 242.91 11.45 239.82 14.54 236.73 14.54 236.73 11.45 233.65 11.45 233.65 .56 222.76 12.08 179.79 15.64 183.36 5.43 221.45 20.51 236.53 23.6 239.62 26.69 236.53 29.77 233.44 32.86 230.35 29.78 227.26 29.77 227.26 20.05 217.54 26.34 194.06 29.91 197.62 24.92 216.23 43.89 235.21 67.38 228.91 65.15 226.69 63.81 225.35 60.24 221.78 57.43 218.96 56.68 218.22 47.81 220.59 39.53 212.32 40.61 208.32 48.22 215.94 53.09 214.63 41.91 203.45 41.21 202.75 38.34 199.88 34.66 213.62 46.51 225.46 55.37 223.09 58.94 226.65 45.2 230.34 29.79 214.93 34.78 196.32 33.39 194.93 31.21 192.75 27.65 189.18 25.67 187.21 24.08 185.62 22.92 189.96 22.58 190.29 22.77 190.49 15.18 218.84 26.69 230.35 23.6 233.44 10.31 220.15 20.51 182.05 19.49 181.03 16.95 178.49 13.38 174.92 11.77 173.31 9.81 171.35 -4.31 224.06 8.36 236.73 5.27 239.82 -9.18 225.37 6.25 167.79 5.08 166.62 2.68 164.22 -.88 160.65 -2.64 158.9 -4.45 157.09"/>
        <polygon class="cls-2" points="73.45 124.91 -8.49 146.87 -4.93 150.43 72.14 129.78 130.34 187.98 109.69 265.05 113.26 268.62 135.22 186.68 73.45 124.91"/>
        <polygon class="cls-2" points="70.84 134.65 -1.36 154 .94 156.29 2.21 157.56 5.77 161.13 8.66 164.02 9.34 164.7 66.92 149.27 87.35 169.69 84.26 172.78 65.62 154.14 12.9 168.26 15.37 170.73 16.47 171.83 20.04 175.4 23.1 178.46 23.6 178.96 61.7 168.75 68.81 175.87 65.73 178.96 60.39 173.63 27.17 182.53 30.73 186.09 59.09 178.5 62.64 182.05 62.64 182.05 65.73 185.14 65.73 185.14 68.81 182.05 71.9 178.96 74.99 175.87 71.9 172.78 63 163.88 24.91 174.09 21.34 170.52 64.31 159.01 81.17 175.87 81.17 175.87 84.26 178.96 93.52 169.69 93.32 169.49 90.43 166.6 68.23 144.4 10.64 159.83 7.08 156.26 69.53 139.53 120.6 190.6 103.87 253.05 100.3 249.48 115.73 191.9 99.49 175.66 96.4 172.58 93.32 175.66 90.23 178.75 87.14 181.84 87.14 181.84 90.23 184.93 101.12 195.82 89.6 238.78 86.04 235.22 96.24 197.12 81.17 182.05 78.08 178.96 74.99 182.05 71.9 185.14 68.81 188.22 68.81 188.22 71.9 191.31 71.9 191.31 81.63 201.04 75.34 224.52 71.77 220.95 76.76 202.34 57.78 183.37 34.3 189.66 36.53 191.89 37.87 193.23 41.43 196.79 44.25 199.61 45 200.36 53.87 197.98 62.14 206.26 61.07 210.26 53.46 202.64 48.59 203.95 59.77 215.13 60.46 215.82 63.33 218.69 67.01 204.95 55.17 193.11 46.3 195.49 42.74 191.92 56.48 188.24 71.89 203.65 66.9 222.26 68.29 223.65 70.47 225.83 74.03 229.39 76.01 231.37 77.6 232.96 78.76 228.62 79.1 228.28 78.9 228.09 86.5 199.73 74.99 188.22 78.08 185.14 91.37 198.43 81.16 236.52 82.19 237.55 84.73 240.09 88.3 243.66 89.91 245.27 91.86 247.22 105.99 194.51 93.32 181.84 96.4 178.75 110.86 193.21 95.43 250.79 96.6 251.96 99 254.36 102.56 257.92 104.32 259.68 106.13 261.49 125.47 189.29 70.84 134.65"/>
        <polygon class="cls-2" points="14.68 136.72 14.66 136.7 14.67 136.7 3.87 125.91 2.56 130.78 6.24 134.46 -3.64 137.11 .8 120.55 -3.72 120.55 -8.51 138.41 -9.82 143.29 -4.94 141.98 14.68 136.72"/>
        <polygon class="cls-2" points="24.42 134.1 20.85 130.54 10.86 120.55 4.69 120.55 11.15 127.01 19.55 135.41 24.42 134.1"/>
        <polygon class="cls-2" points="71.17 120.55 54.3 120.55 29.54 127.19 22.9 120.55 16.72 120.55 28.23 132.06 71.17 120.55"/>
        <polygon class="cls-2" points="30.84 122.32 37.42 120.55 29.08 120.55 30.84 122.32"/>
        <polygon class="cls-2" points="179.59 120.55 178.11 119.08 177.72 120.55 179.59 120.55"/>
        <polygon class="cls-2" points="176.29 54 131.27 66.06 134.84 69.63 176.29 58.52 176.29 58.52 211.91 48.98 270.11 107.18 266.53 120.55 271.05 120.55 274.98 105.88 213.21 44.11 176.29 54 176.29 54"/>
        <polygon class="cls-2" points="262.01 120.55 265.24 108.49 210.6 53.85 176.29 63.04 176.29 67.57 209.3 58.72 260.37 109.79 257.49 120.55 262.01 120.55"/>
        <polygon class="cls-2" points="234.88 120.55 236.01 116.32 220.94 101.24 217.85 98.16 214.76 101.24 211.67 104.33 208.58 107.42 208.58 107.42 211.67 110.51 211.67 110.51 221.4 120.23 221.31 120.55 225.83 120.55 226.27 118.93 214.76 107.42 217.85 104.33 231.14 117.62 230.35 120.55 234.88 120.55"/>
        <polygon class="cls-2" points="302.44 120.55 250.87 68.98 271.52 -8.08 267.95 -11.65 246 70.29 296.26 120.55 302.44 120.55"/>
        <polygon class="cls-2" points="239.1 44.86 234.23 46.17 245.03 56.97 245.03 56.97 245.04 56.98 250.3 37.36 251.61 32.49 246.74 33.79 222.24 40.36 217.37 41.66 220.94 45.23 238.86 63.15 242.43 66.72 243.74 61.85 235.34 53.45 225.81 43.92 245.43 38.66 242.78 48.54 239.1 44.86"/>
        <polygon class="cls-2" points="176.29 44.51 176.29 49.03 249.94 29.3 246.37 25.73 176.29 44.51"/>
        <polygon class="cls-2" points="226.07 5.43 224.97 4.34 221.41 .77 218.35 -2.29 217.84 -2.8 179.75 7.41 176.29 3.96 176.29 10.14 178.44 12.28 216.54 2.08 220.1 5.64 177.14 17.15 176.29 16.31 176.29 21.9 228.54 7.9 226.07 5.43"/>
        <polygon class="cls-2" points="176.29 -8.4 176.29 -2.22 181.05 2.54 214.28 -6.36 210.71 -9.93 182.36 -2.33 178.81 -5.88 178.81 -5.88 176.29 -8.4"/>
        <polygon class="cls-2" points="253.03 26.21 271.05 -41.05 266.53 -41.05 249.46 22.65 253.03 26.21"/>
        <polygon class="cls-2" points="236.37 9.55 238.76 11.95 242.33 15.51 244.09 17.27 245.89 19.08 262.01 -41.05 257.48 -41.05 243.63 10.64 240.07 7.08 252.96 -41.05 248.44 -41.05 235.2 8.38 236.37 9.55"/>
        <polygon class="cls-2" points="221.95 -4.86 224.5 -2.32 228.06 1.25 229.68 2.86 231.63 4.81 243.92 -41.05 239.4 -41.05 229.37 -3.62 225.8 -7.19 234.88 -41.05 230.35 -41.05 220.93 -5.88 221.95 -4.86"/>
        <polygon class="cls-2" points="271.05 282.16 274.98 267.48 213.21 205.71 176.29 215.61 176.29 215.61 131.27 227.67 134.84 231.23 176.29 220.13 176.29 220.13 211.91 210.58 270.11 268.79 266.53 282.16 271.05 282.16"/>
        <polygon class="cls-2" points="176.29 224.65 176.29 229.17 209.3 220.33 260.37 271.4 257.49 282.16 262.01 282.16 265.24 270.09 210.6 215.46 176.29 224.65"/>
        <polygon class="cls-2" points="217.85 259.76 214.76 262.85 211.67 265.94 208.58 269.03 208.58 269.03 211.67 272.12 211.67 272.11 221.4 281.84 221.31 282.16 225.83 282.16 226.27 280.54 214.76 269.03 217.85 265.94 231.14 279.23 230.35 282.16 234.88 282.16 236.01 277.92 220.94 262.85 217.85 259.76"/>
        <polygon class="cls-2" points="236.17 253.38 233.08 256.47 229.99 259.56 226.91 262.64 226.91 262.64 229.99 265.73 229.99 265.73 240.88 276.62 239.4 282.16 243.92 282.16 245.75 275.31 233.08 262.64 236.17 259.56 250.62 274.01 248.44 282.16 252.96 282.16 255.5 272.7 239.26 256.47 236.17 253.38"/>
        <polygon class="cls-2" points="302.44 282.16 250.87 230.59 271.52 153.52 267.95 149.95 246 231.89 296.26 282.16 302.44 282.16"/>
        <polygon class="cls-2" points="239.1 206.47 234.23 207.77 245.03 218.57 245.03 218.57 245.04 218.58 250.3 198.96 251.61 194.09 246.74 195.4 222.24 201.96 217.37 203.27 220.94 206.83 238.86 224.76 242.43 228.32 243.74 223.45 235.34 215.06 225.81 205.53 245.43 200.27 242.78 210.15 239.1 206.47"/>
        <polygon class="cls-2" points="246.37 187.34 176.29 206.12 176.29 210.64 249.94 190.9 246.37 187.34"/>
        <polygon class="cls-2" points="226.07 167.04 224.97 165.94 221.41 162.38 218.35 159.32 217.84 158.81 179.75 169.02 176.29 165.56 176.29 171.74 178.44 173.89 216.54 163.68 220.1 167.25 177.14 178.76 176.29 177.92 176.29 183.51 228.54 169.51 226.07 167.04"/>
        <polygon class="cls-2" points="214.28 155.24 210.71 151.68 182.36 159.27 178.81 155.72 178.81 155.72 176.29 153.21 176.29 159.39 181.05 164.15 214.28 155.24"/>
        <polygon class="cls-2" points="271.05 120.55 266.53 120.55 249.46 184.25 253.03 187.82 271.05 120.55"/>
        <polygon class="cls-2" points="238.76 173.55 242.33 177.12 244.09 178.88 245.89 180.68 262.01 120.55 257.48 120.55 243.63 172.25 240.07 168.68 252.96 120.55 248.44 120.55 235.2 169.99 236.37 171.16 238.76 173.55"/>
        <polygon class="cls-2" points="221.31 120.55 215.1 143.72 211.54 140.15 216.52 121.54 215.54 120.55 209.36 120.55 211.65 122.85 206.67 141.46 208.05 142.84 210.23 145.02 213.8 148.59 215.78 150.57 217.36 152.15 218.53 147.82 218.87 147.48 218.67 147.28 225.83 120.55 221.31 120.55"/>
        <polygon class="cls-2" points="193.22 121.84 188.35 123.14 199.53 134.32 200.23 135.02 203.1 137.89 206.78 124.15 203.18 120.55 203.18 120.55 194.94 112.31 186.07 114.68 182.51 111.12 196.24 107.44 209.36 120.55 215.54 120.55 197.55 102.57 176.29 108.26 176.29 108.26 174.07 108.86 176.29 111.08 176.29 111.08 176.3 111.09 177.63 112.42 181.2 115.99 184.02 118.81 184.77 119.56 193.63 117.18 197.01 120.55 197.01 120.55 201.91 125.46 200.84 129.45 193.22 121.84"/>
        <polygon class="cls-2" points="231.63 166.42 243.92 120.55 243.92 120.55 245.75 113.71 233.08 101.04 236.17 97.95 250.62 112.4 248.44 120.55 252.96 120.55 255.5 111.1 239.26 94.86 236.17 91.77 233.08 94.86 229.99 97.95 226.91 101.04 226.91 101.04 229.99 104.13 229.99 104.13 240.88 115.01 239.4 120.55 239.4 120.55 229.37 157.98 225.8 154.42 234.88 120.55 230.35 120.55 220.93 155.72 221.95 156.74 224.5 159.29 228.06 162.85 229.68 164.46 231.63 166.42"/>
      </g>
    </g>
  </g>
</svg>